<svg xmlns="http://www.w3.org/2000/svg" width="60" height="60" viewBox="0 0 60 60">
  <defs>
    <style>
      .cls-1 {
        fill: #26272d;
      }
    </style>
  </defs>
  <path d="M38 2C36.902344 2 35.855469 2.175781 34.875 2.5L33.3125 3L40.09375 9.78125L38.875 12.875L35.78125 14.09375L29 7.3125L28.5 8.875C28.175781 9.855469 28 10.902344 28 12C28 16.078125 30.488281 19.511719 34 21.0625L34 43C34 45.75 36.25 48 39 48C41.75 48 44 45.75 44 43L44 19.9375C46.410156 18.113281 48 15.25 48 12C48 6.488281 43.511719 2 38 2 Z M 38 4C42.429688 4 46 7.570313 46 12C46 14.78125 44.582031 17.222656 42.4375 18.65625L42 18.9375L42 43C42 44.667969 40.667969 46 39 46C37.332031 46 36 44.667969 36 43L36 19.78125L35.34375 19.53125C32.238281 18.433594 30 15.492188 30 12C30 11.738281 30.101563 11.503906 30.125 11.25L35.3125 16.4375L35.90625 16.1875L40 14.5625L40.40625 14.40625L40.5625 14L42.1875 9.90625L42.4375 9.3125L37.25 4.125C37.503906 4.101563 37.738281 4 38 4 Z M 22.5 14C21.289063 14 20.128906 14.453125 19.21875 15.25L12.53125 21.09375L2.28125 23.65625C0.949219 23.988281 0 25.191406 0 26.5625L0 32C0 33.644531 1.355469 35 3 35L4.09375 35C4.5625 37.273438 6.59375 39 9 39C11.40625 39 13.4375 37.273438 13.90625 35L32 35L32 33L13.90625 33C13.4375 30.726563 11.40625 29 9 29C6.59375 29 4.5625 30.726563 4.09375 33L3 33C2.433594 33 2 32.566406 2 32L2 26.5625C2 26.097656 2.300781 25.707031 2.75 25.59375L13.25 22.96875C13.402344 22.929688 13.539063 22.855469 13.65625 22.75L20.53125 16.75C21.078125 16.269531 21.773438 16 22.5 16L27 16L27 14 Z M 9 31C10.667969 31 12 32.332031 12 34C12 35.667969 10.667969 37 9 37C7.332031 37 6 35.667969 6 34C6 32.332031 7.332031 31 9 31Z" fill="#26272D" />
</svg>
