
<svg xmlns="http://www.w3.org/2000/svg" width="60" height="60" viewBox="0 0 60 60">
  <defs>
    <style>
      .cls-1 {
        fill: #26272d;
      }
    </style>
  </defs>
  <path d="M25 8C21.453125 8 19.128906 8.238281 17.65625 8.5C16.269531 8.746094 15.667969 9.03125 15.59375 9.0625C15.589844 9.066406 15.46875 9.09375 15.46875 9.09375C13.988281 9.59375 11.734375 10.28125 10.6875 12.3125C10.433594 12.804688 10.054688 13.804688 9.5 15.21875C9.074219 16.304688 8.574219 17.675781 8.0625 19L5.09375 19C3.609375 19 2.507813 19.496094 1.84375 20.25C1.179688 21.003906 1 21.898438 1 22.59375C1 23.371094 1.40625 24.148438 2.03125 24.53125C2.65625 24.914063 3.355469 25 4.09375 25L5.75 25C5.59375 25.417969 5.0625 26.8125 5.0625 26.8125L5 27L5 39C5 40.644531 6.355469 42 8 42L12 42C13.644531 42 15 40.644531 15 39L15 38L35 38L35 39C35 40.644531 36.355469 42 38 42L42 42C43.644531 42 45 40.644531 45 39L45 27L44.9375 26.8125C44.9375 26.8125 44.414063 25.421875 44.25 25L45.90625 25C46.644531 25 47.34375 24.914063 47.96875 24.53125C48.59375 24.148438 49 23.371094 49 22.59375C49 21.898438 48.820313 21.003906 48.15625 20.25C47.492188 19.496094 46.390625 19 44.90625 19L41.9375 19C41.875 18.851563 41.8125 18.707031 41.78125 18.625C40.699219 15.828125 39.65625 13.164063 39.28125 12.3125C38.324219 10.136719 35.863281 9.46875 34.53125 9.09375C34.488281 9.082031 34.414063 9.042969 34.375 9.03125L34.375 9.0625C34.28125 9.023438 33.710938 8.746094 32.34375 8.5C30.871094 8.238281 28.546875 8 25 8 Z M 25 10C28.453125 10 30.671875 10.261719 32 10.5C33.328125 10.738281 33.65625 10.90625 33.65625 10.90625L33.75 10.9375L33.8125 10.96875C35.03125 11.316406 36.996094 12.117188 37.4375 13.125C37.726563 13.78125 38.863281 16.707031 39.90625 19.375C40.15625 20.011719 40.574219 21.050781 40.4375 21.6875C40.367188 22.007813 40.246094 22.238281 39.78125 22.5C39.316406 22.761719 38.441406 23 37 23L13 23C11.558594 23 10.683594 22.761719 10.21875 22.5C9.753906 22.238281 9.632813 22.007813 9.5625 21.6875C9.425781 21.050781 9.84375 20.011719 10.09375 19.375L10.03125 19.34375C10.488281 18.152344 10.957031 16.917969 11.34375 15.9375C11.894531 14.535156 12.386719 13.410156 12.46875 13.25C13.023438 12.171875 14.753906 11.4375 16.21875 10.9375L16.28125 10.9375L16.34375 10.90625C16.34375 10.90625 16.671875 10.738281 18 10.5C19.328125 10.261719 21.546875 10 25 10 Z M 5.09375 21L7.25 21C6.871094 21.996094 6.804688 22.191406 6.5 23L4.09375 23C3.535156 23 3.1875 22.902344 3.09375 22.84375C3 22.785156 3 22.875 3 22.59375C3 22.230469 3.101563 21.835938 3.34375 21.5625C3.585938 21.289063 4.007813 21 5.09375 21 Z M 42.6875 21L44.90625 21C45.992188 21 46.414063 21.289063 46.65625 21.5625C46.898438 21.835938 47 22.230469 47 22.59375C47 22.875 47 22.785156 46.90625 22.84375C46.8125 22.902344 46.464844 23 45.90625 23L43.46875 23C43.148438 22.179688 43.078125 22.011719 42.6875 21 Z M 8.4375 23.59375C8.667969 23.835938 8.933594 24.070313 9.25 24.25C10.152344 24.757813 11.347656 25 13 25L37 25C38.652344 25 39.847656 24.757813 40.75 24.25C41.066406 24.070313 41.332031 23.835938 41.5625 23.59375C42.148438 25.132813 42.964844 27.289063 43 27.375L43 35.15625C43 35.625 42.609375 36 42.09375 36L7.90625 36C7.390625 36 7 35.625 7 35.15625L7 27.375C7.03125 27.289063 7.867188 25.117188 8.4375 23.59375 Z M 11 26C9.355469 26 8 27.355469 8 29C8 29.886719 8.367188 30.675781 8.875 31.21875C9.382813 31.761719 9.996094 32.128906 10.59375 32.46875C11.441406 32.949219 12.019531 33.316406 12.6875 33.59375C13.355469 33.871094 14.074219 34 15 34C17.195313 34 19 32.199219 19 30C19 27.800781 17.195313 26 15 26 Z M 35 26C32.804688 26 31 27.800781 31 30C31 32.199219 32.804688 34 35 34C35.925781 34 36.644531 33.871094 37.3125 33.59375C37.980469 33.316406 38.558594 32.949219 39.40625 32.46875C40.003906 32.128906 40.617188 31.761719 41.125 31.21875C41.632813 30.675781 42 29.886719 42 29C42 27.355469 40.644531 26 39 26 Z M 11 28L15 28C16.117188 28 17 28.882813 17 30C17 31.117188 16.117188 32 15 32C14.25 32 13.878906 31.933594 13.4375 31.75C12.996094 31.566406 12.445313 31.21875 11.5625 30.71875C11 30.402344 10.585938 30.101563 10.34375 29.84375C10.101563 29.585938 10 29.417969 10 29C10 28.4375 10.4375 28 11 28 Z M 35 28L39 28C39.5625 28 40 28.4375 40 29C40 29.417969 39.898438 29.585938 39.65625 29.84375C39.414063 30.101563 39 30.402344 38.4375 30.71875C37.554688 31.21875 37.003906 31.566406 36.5625 31.75C36.121094 31.933594 35.75 32 35 32C33.882813 32 33 31.117188 33 30C33 28.882813 33.882813 28 35 28 Z M 7 37.84375C7.289063 37.9375 7.589844 38 7.90625 38L13 38L13 39C13 39.5625 12.5625 40 12 40L8 40C7.4375 40 7 39.5625 7 39 Z M 43 37.84375L43 39C43 39.5625 42.5625 40 42 40L38 40C37.4375 40 37 39.5625 37 39L37 38L42.09375 38C42.410156 38 42.710938 37.9375 43 37.84375Z" fill="#26272D" />
</svg>