<svg xmlns="http://www.w3.org/2000/svg" xmlns:xlink="http://www.w3.org/1999/xlink" viewBox="0 0 100 100"><path fill="#fae8e6" d="M81,81H19V19h62V81z"/><path fill="#60be92" d="M72 29.5v7c0 .28-.22.5-.5.5h-43c-.28 0-.5-.22-.5-.5v-7c0-.28.22-.5.5-.5h43C71.78 29 72 29.22 72 29.5zM63 40.5v5c0 .28-.22.5-.5.5h-34c-.28 0-.5-.22-.5-.5v-5c0-.28.22-.5.5-.5h34C62.78 40 63 40.22 63 40.5z"/><path fill="#78a2d2" d="M46,53.5v17c0,0.28-0.22,0.5-0.5,0.5h-17c-0.28,0-0.5-0.22-0.5-0.5v-17c0-0.28,0.22-0.5,0.5-0.5h17C45.78,53,46,53.22,46,53.5z"/><path fill="#fcba7f" d="M40,59.5v5c0,0.28-0.22,0.5-0.5,0.5h-5c-0.28,0-0.5-0.22-0.5-0.5v-5c0-0.28,0.22-0.5,0.5-0.5h5C39.78,59,40,59.22,40,59.5z"/><path fill="#1f212b" d="M22.5 45c-.276 0-.5-.224-.5-.5v-22c0-.276.224-.5.5-.5h33c.276 0 .5.224.5.5S55.776 23 55.5 23H23v21.5C23 44.776 22.776 45 22.5 45zM22.5 53c-.276 0-.5-.224-.5-.5v-5c0-.276.224-.5.5-.5s.5.224.5.5v5C23 52.776 22.776 53 22.5 53zM67.5 78h-45c-.276 0-.5-.224-.5-.5v-7c0-.276.224-.5.5-.5s.5.224.5.5V77h44.5c.276 0 .5.224.5.5S67.776 78 67.5 78zM77.5 75c-.276 0-.5-.224-.5-.5v-37c0-.276.224-.5.5-.5s.5.224.5.5v37C78 74.776 77.776 75 77.5 75zM77.5 35c-.276 0-.5-.224-.5-.5v-3c0-.276.224-.5.5-.5s.5.224.5.5v3C78 34.776 77.776 35 77.5 35zM77.5 29c-.276 0-.5-.224-.5-.5v-2c0-.276.224-.5.5-.5s.5.224.5.5v2C78 28.776 77.776 29 77.5 29z"/><path fill="#1f212b" d="M81,82H19c-0.552,0-1-0.447-1-1V19c0-0.553,0.448-1,1-1h62c0.552,0,1,0.447,1,1v62C82,81.553,81.552,82,81,82z M20,80h60V20H20V80z"/><path fill="#1f212b" d="M71.5 54h-19c-.276 0-.5-.224-.5-.5s.224-.5.5-.5h19c.276 0 .5.224.5.5S71.776 54 71.5 54zM71.5 60h-14c-.276 0-.5-.224-.5-.5s.224-.5.5-.5h14c.276 0 .5.224.5.5S71.776 60 71.5 60zM71.5 66h-9c-.276 0-.5-.224-.5-.5s.224-.5.5-.5h9c.276 0 .5.224.5.5S71.776 66 71.5 66zM71.5 37h-43c-.276 0-.5-.224-.5-.5v-7c0-.276.224-.5.5-.5h43c.276 0 .5.224.5.5v7C72 36.776 71.776 37 71.5 37zM29 36h42v-6H29V36zM62.5 46h-34c-.276 0-.5-.224-.5-.5v-5c0-.276.224-.5.5-.5h34c.276 0 .5.224.5.5v5C63 45.776 62.776 46 62.5 46zM29 45h33v-4H29V45zM45.5 71h-17c-.276 0-.5-.224-.5-.5v-17c0-.276.224-.5.5-.5h17c.276 0 .5.224.5.5v17C46 70.776 45.776 71 45.5 71zM29 70h16V54H29V70z"/><path fill="#1f212b" d="M39.5,65h-5c-0.276,0-0.5-0.224-0.5-0.5v-5c0-0.276,0.224-0.5,0.5-0.5h5c0.276,0,0.5,0.224,0.5,0.5v5C40,64.776,39.776,65,39.5,65z M35,64h4v-4h-4V64z"/></svg>